<svg width="78" height="20" viewBox="0 0 78 20" fill="none" xmlns="http://www.w3.org/2000/svg">
<path d="M20 10C20 15.5228 15.5228 20 10 20C4.47715 20 0 15.5228 0 10C0 4.47715 4.47715 0 10 0C15.5228 0 20 4.47715 20 10Z" fill="white"/>
<path d="M78 10C78 15.5228 73.5228 20 68 20C62.4772 20 58 15.5228 58 10C58 4.47715 62.4772 0 68 0C73.5228 0 78 4.47715 78 10Z" fill="white"/>
<path d="M49 10C49 15.5228 44.5228 20 39 20C33.4772 20 29 15.5228 29 10C29 4.47715 33.4772 0 39 0C44.5228 0 49 4.47715 49 10Z" fill="white"/>
</svg>
