<svg width="70" height="95" viewBox="0 0 70 95" fill="none" xmlns="http://www.w3.org/2000/svg">
<path d="M64.4537 35.6285C63.8239 53.0384 32.7738 92.524 32.7738 92.524C32.7738 92.524 2.19442 50.7222 2.82419 33.3123C3.12603 24.9726 6.66176 17.0968 12.6536 11.4175C18.6454 5.73824 26.6025 2.72072 34.7743 3.02875C42.9462 3.33679 50.6635 6.94516 56.2284 13.06C61.7934 19.1749 64.7502 27.2955 64.4484 35.6352L64.4537 35.6285Z" fill="#83D8E4"/>
<path d="M49.1338 32.5255C49.4487 23.8204 42.8051 16.5036 34.2951 16.1831C25.7851 15.8626 18.6311 22.6596 18.3163 31.3648C18.0015 40.0699 24.645 47.3867 33.155 47.7072C41.6651 48.0277 48.819 41.2307 49.1338 32.5255Z" fill="white"/>
</svg>
