<svg width="126" height="158" viewBox="0 0 126 158" fill="none" xmlns="http://www.w3.org/2000/svg">
<path d="M90.7957 119.646L91 23" stroke="#46939E" stroke-width="12" stroke-linecap="round" stroke-linejoin="round"/>
<path fill-rule="evenodd" clip-rule="evenodd" d="M59.0026 105.691L89.1236 147.618L122.59 106.691L59 105.689L59.0026 105.691Z" fill="white" stroke="#46939E" stroke-width="5.71" stroke-linecap="round" stroke-linejoin="round"/>
<path d="M35.7335 132.765C36.8285 132.765 37.6802 133.07 38.2885 133.678C38.9212 134.286 39.2375 135.089 39.2375 136.087V142H2.5185V138.715C2.5185 138.082 2.65233 137.401 2.92 136.671C3.18767 135.917 3.63783 135.235 4.2705 134.627L19.9655 118.895C21.3038 117.557 22.484 116.28 23.506 115.063C24.528 113.822 25.3797 112.617 26.061 111.449C26.7423 110.257 27.2533 109.053 27.594 107.836C27.9347 106.619 28.105 105.342 28.105 104.003C28.105 101.643 27.4967 99.8547 26.28 98.638C25.0633 97.397 23.3478 96.7765 21.1335 96.7765C20.1602 96.7765 19.2598 96.9225 18.4325 97.2145C17.6295 97.4822 16.8995 97.8593 16.2425 98.346C15.6098 98.8327 15.0623 99.4045 14.6 100.061C14.1377 100.718 13.797 101.436 13.578 102.215C13.14 103.432 12.5438 104.247 11.7895 104.66C11.0595 105.05 10.0132 105.135 8.6505 104.916L3.3215 103.967C3.71083 101.388 4.44083 99.1247 5.5115 97.178C6.58217 95.2313 7.9205 93.6132 9.5265 92.3235C11.1325 91.0338 12.9697 90.0727 15.038 89.44C17.1063 88.783 19.3328 88.4545 21.7175 88.4545C24.2238 88.4545 26.499 88.8317 28.543 89.586C30.6113 90.316 32.3755 91.3502 33.8355 92.6885C35.2955 94.0025 36.427 95.5963 37.23 97.47C38.033 99.3437 38.4345 101.412 38.4345 103.675C38.4345 105.622 38.1547 107.422 37.595 109.077C37.0353 110.732 36.2688 112.313 35.2955 113.822C34.3465 115.306 33.2393 116.754 31.974 118.165C30.7087 119.577 29.3703 121 27.959 122.436L16.717 133.933C17.958 133.568 19.1868 133.289 20.4035 133.094C21.6202 132.875 22.7638 132.765 23.8345 132.765H35.7335Z" fill="#46939E"/>
<path d="M38.033 64.5905V72H8.322V64.5905H18.834V35.6095C18.834 34.9768 18.8462 34.332 18.8705 33.675C18.8948 33.018 18.9313 32.3488 18.98 31.6675L12.045 37.4345C11.5583 37.7995 11.0838 38.0307 10.6215 38.128C10.1592 38.2253 9.72117 38.2375 9.3075 38.1645C8.89383 38.0672 8.52883 37.9212 8.2125 37.7265C7.89617 37.5075 7.65283 37.2885 7.4825 37.0695L4.307 32.799L20.586 19.002H28.8715V64.5905H38.033Z" fill="#46939E"/>
</svg>
