<svg width="126" height="158" viewBox="0 0 126 158" fill="none" xmlns="http://www.w3.org/2000/svg">
<path d="M90.7957 119.646L91 23" stroke="#46939E" stroke-width="12" stroke-linecap="round" stroke-linejoin="round"/>
<path fill-rule="evenodd" clip-rule="evenodd" d="M59.0026 105.691L89.1236 147.618L122.59 106.691L59 105.689L59.0026 105.691Z" fill="white" stroke="#46939E" stroke-width="5.71" stroke-linecap="round" stroke-linejoin="round"/>
<path d="M38.033 134.59V142H8.322V134.59H18.834V105.609C18.834 104.977 18.8462 104.332 18.8705 103.675C18.8948 103.018 18.9313 102.349 18.98 101.667L12.045 107.434C11.5583 107.799 11.0838 108.031 10.6215 108.128C10.1592 108.225 9.72117 108.237 9.3075 108.164C8.89383 108.067 8.52883 107.921 8.2125 107.726C7.89617 107.507 7.65283 107.288 7.4825 107.069L4.307 102.799L20.586 89.002H28.8715V134.59H38.033Z" fill="#46939E"/>
<path d="M35.7335 62.7655C36.8285 62.7655 37.6802 63.0697 38.2885 63.678C38.9212 64.2863 39.2375 65.0893 39.2375 66.087V72H2.5185V68.715C2.5185 68.0823 2.65233 67.401 2.92 66.671C3.18767 65.9167 3.63783 65.2353 4.2705 64.627L19.9655 48.8955C21.3038 47.5572 22.484 46.2797 23.506 45.063C24.528 43.822 25.3797 42.6175 26.061 41.4495C26.7423 40.2572 27.2533 39.0527 27.594 37.836C27.9347 36.6193 28.105 35.3418 28.105 34.0035C28.105 31.6432 27.4967 29.8547 26.28 28.638C25.0633 27.397 23.3478 26.7765 21.1335 26.7765C20.1602 26.7765 19.2598 26.9225 18.4325 27.2145C17.6295 27.4822 16.8995 27.8593 16.2425 28.346C15.6098 28.8327 15.0623 29.4045 14.6 30.0615C14.1377 30.7185 13.797 31.4363 13.578 32.215C13.14 33.4317 12.5438 34.2468 11.7895 34.6605C11.0595 35.0498 10.0132 35.135 8.6505 34.916L3.3215 33.967C3.71083 31.3877 4.44083 29.1247 5.5115 27.178C6.58217 25.2313 7.9205 23.6132 9.5265 22.3235C11.1325 21.0338 12.9697 20.0727 15.038 19.44C17.1063 18.783 19.3328 18.4545 21.7175 18.4545C24.2238 18.4545 26.499 18.8317 28.543 19.586C30.6113 20.316 32.3755 21.3502 33.8355 22.6885C35.2955 24.0025 36.427 25.5963 37.23 27.47C38.033 29.3437 38.4345 31.412 38.4345 33.675C38.4345 35.6217 38.1547 37.4223 37.595 39.077C37.0353 40.7317 36.2688 42.3133 35.2955 43.822C34.3465 45.3063 33.2393 46.7542 31.974 48.1655C30.7087 49.5768 29.3703 51.0003 27.959 52.436L16.717 63.9335C17.958 63.5685 19.1868 63.2887 20.4035 63.094C21.6202 62.875 22.7638 62.7655 23.8345 62.7655H35.7335Z" fill="#46939E"/>
</svg>
