<svg width="830" height="822" viewBox="0 0 830 822" fill="none" xmlns="http://www.w3.org/2000/svg">
<path d="M629.043 34.147L432.835 228.462C420.946 240.24 409.053 240.24 397.162 228.462L200.955 34.147C154.985 -11.3808 80.4507 -11.3808 34.4781 34.147C-11.4911 79.6765 -11.4944 153.493 34.4781 199.021L230.684 393.336C242.574 405.113 242.574 416.889 230.684 428.666L34.4781 622.982C-11.4944 668.509 -11.4911 742.326 34.4781 787.854C80.4507 833.381 154.985 833.383 200.955 787.854L397.162 593.54C409.053 581.763 420.946 581.763 432.835 593.54L629.043 787.854C675.014 833.383 749.548 833.381 795.521 787.854C841.493 742.326 841.493 668.509 795.521 622.982L599.315 428.666C587.423 416.889 587.423 405.113 599.315 393.336L795.521 199.021C841.493 153.493 841.493 79.6765 795.521 34.147C772.534 11.3823 742.408 -3.23852e-05 712.281 -3.23852e-05C682.154 -3.23852e-05 652.029 11.3823 629.043 34.147ZM450.674 246.128L646.878 51.8125C683 16.0407 741.562 16.0407 777.682 51.8125C813.805 87.5858 813.805 145.584 777.682 181.357L581.477 375.67C557.695 399.224 557.695 422.779 581.477 446.332L777.682 640.647C813.805 676.419 813.805 734.416 777.682 770.19C741.562 805.961 683 805.961 646.878 770.19L450.674 575.873C426.892 552.321 403.107 552.321 379.325 575.873L183.119 770.19C147.001 805.961 88.4353 805.961 52.3171 770.19C16.194 734.416 16.194 676.419 52.3171 640.647L248.523 446.332C272.304 422.779 272.304 399.224 248.523 375.67L52.3171 181.357C16.194 145.584 16.194 87.5858 52.3171 51.8125C88.4353 16.0407 147.001 16.0407 183.119 51.8125L379.325 246.128C391.217 257.905 403.107 263.793 414.999 263.793C426.892 263.793 438.782 257.905 450.674 246.128ZM652.825 57.7005L456.619 252.017C428.872 279.496 401.127 279.496 373.379 252.017L177.174 57.7005C144.336 25.1797 91.098 25.1797 58.2607 57.7005C25.4251 90.2213 25.4251 142.948 58.2607 175.467L254.468 369.784C282.214 397.263 282.214 424.741 254.468 452.22L58.2607 646.535C25.4251 679.056 25.4251 731.781 58.2607 764.302C91.098 796.821 144.336 796.821 177.174 764.302L373.379 569.985C401.127 542.506 428.872 542.506 456.619 569.985L652.825 764.302C685.661 796.821 738.901 796.821 771.738 764.302C804.574 731.781 804.574 679.056 771.738 646.535L575.531 452.22C547.784 424.741 547.784 397.263 575.531 369.784L771.738 175.467C804.574 142.948 804.574 90.2213 771.738 57.7005C755.319 41.4409 733.8 33.3111 712.281 33.3111C690.762 33.3111 669.243 41.4409 652.825 57.7005ZM474.455 269.682L670.661 75.3643C693.645 52.6028 730.915 52.6028 753.901 75.3643C776.887 98.129 776.887 135.039 753.901 157.804L557.695 352.118C518.057 391.373 518.057 430.628 557.695 469.885L753.901 664.199C776.887 686.963 776.887 723.872 753.901 746.635C730.915 769.401 693.645 769.401 670.661 746.635L474.455 552.321C434.819 513.065 395.182 513.065 355.542 552.321L159.336 746.635C136.352 769.401 99.0843 769.401 76.0981 746.635C53.1118 723.872 53.1118 686.963 76.0981 664.199L272.304 469.885C311.944 430.628 311.944 391.373 272.304 352.118L76.0981 157.804C53.1118 135.039 53.1118 98.129 76.0981 75.3643C99.0843 52.6028 136.352 52.6028 159.336 75.3643L355.542 269.682C375.363 289.309 395.18 299.122 414.999 299.122C434.818 299.122 454.638 289.309 474.455 269.682ZM676.608 81.2555L480.402 275.569C436.799 318.75 393.199 318.75 349.597 275.569L153.391 81.2555C133.689 61.7433 101.745 61.7433 82.0449 81.2555C62.3429 100.768 62.3429 132.402 82.0449 151.914L278.249 346.229C321.851 389.41 321.851 432.592 278.249 475.773L82.0449 670.087C62.3429 689.6 62.3429 721.236 82.0449 740.747C101.745 760.259 133.689 760.259 153.391 740.747L349.597 546.432C393.199 503.252 436.799 503.252 480.402 546.432L676.608 740.747C696.31 760.259 728.253 760.259 747.954 740.747C767.657 721.236 767.657 689.6 747.954 670.087L551.748 475.773C508.148 432.592 508.148 389.41 551.748 346.229L747.954 151.914C767.657 132.402 767.657 100.768 747.954 81.2555C738.104 71.4994 725.194 66.6206 712.281 66.6206C699.37 66.6206 686.459 71.4994 676.608 81.2555ZM498.239 293.234L694.443 98.9209C704.296 89.1649 720.267 89.1649 730.118 98.9209C739.969 108.677 739.971 124.492 730.118 134.25L533.912 328.565C478.42 383.522 478.42 438.48 533.912 493.437L730.118 687.752C739.971 697.508 739.969 713.327 730.118 723.083C720.267 732.839 704.296 732.839 694.443 723.083L498.239 528.768C442.745 473.811 387.253 473.811 331.761 528.768L135.555 723.083C125.703 732.839 109.73 732.839 99.8806 723.083C90.0279 713.327 90.0279 697.508 99.8806 687.752L296.086 493.437C351.579 438.48 351.579 383.522 296.086 328.565L99.8806 134.25C90.0279 124.492 90.0279 108.677 99.8806 98.9209C109.73 89.1649 125.703 89.1649 135.555 98.9209L331.761 293.234C359.507 320.713 387.253 334.451 414.999 334.451C442.745 334.451 470.493 320.713 498.239 293.234Z" fill="white"/>
<path d="M19.0001 154.5C18.6762 24.351 61.7325 11.2497 167.5 28L419 254.5L660.5 28C768.756 4.80607 805.925 26.4205 816.5 147L575 402.5V424L805 658C825.979 780.332 796.698 812.324 660.5 794.5L428 575L406.5 568.5L189 787C64.7801 828.063 18.1721 814.662 19.0001 658L255.5 415L19.0001 154.5Z" fill="white"/>
</svg>
