<svg width="126" height="208" viewBox="0 0 126 208" fill="none" xmlns="http://www.w3.org/2000/svg">
<g filter="url(#filter0_d)">
<path d="M38.507 33.8885L32.7765 17.6825C32.4359 16.8308 32.0709 15.8331 31.6815 14.6895C31.3165 13.5458 30.9637 12.3048 30.623 10.9665C30.2824 12.3292 29.9174 13.5945 29.528 14.7625C29.163 15.9062 28.8102 16.9038 28.4695 17.7555L22.7755 33.8885H38.507ZM56.903 54H48.3985C47.4495 54 46.6709 53.781 46.0625 53.343C45.4785 52.8807 45.0405 52.2967 44.7485 51.591L41.1715 41.4805H20.0745L16.4975 51.591C16.2542 52.1993 15.8284 52.759 15.22 53.27C14.6117 53.7566 13.8452 54 12.9205 54H4.34302L25.0385 1.03848H36.244L56.903 54Z" fill="white"/>
<path d="M65.525 118.605C67.277 118.605 68.7127 118.398 69.832 117.984C70.9757 117.546 71.8882 116.975 72.5695 116.269C73.2508 115.563 73.7253 114.76 73.993 113.86C74.2607 112.935 74.3945 111.986 74.3945 111.013C74.3945 109.942 74.2363 108.981 73.92 108.129C73.6037 107.278 73.0927 106.56 72.387 105.976C71.6813 105.368 70.7567 104.905 69.613 104.589C68.4937 104.273 67.1067 104.114 65.452 104.114H56.1445V118.605H65.525ZM56.1445 82.3605V96.6685H63.335C64.868 96.6685 66.2307 96.5468 67.423 96.3035C68.6153 96.0358 69.613 95.6222 70.416 95.0625C71.219 94.5028 71.8273 93.7728 72.241 92.8725C72.679 91.9478 72.898 90.8407 72.898 89.551C72.898 88.237 72.7155 87.1177 72.3505 86.193C72.0098 85.2683 71.4745 84.5262 70.7445 83.9665C70.0145 83.4068 69.0898 83.0053 67.9705 82.762C66.8512 82.4943 65.525 82.3605 63.992 82.3605H56.1445ZM63.992 74.0385C67.5447 74.0385 70.5742 74.3791 73.0805 75.0605C75.6112 75.7175 77.6673 76.6665 79.249 77.9075C80.855 79.1242 82.023 80.6085 82.753 82.3605C83.483 84.1125 83.848 86.0713 83.848 88.237C83.848 89.4536 83.6655 90.6216 83.3005 91.741C82.9598 92.8603 82.4123 93.9188 81.658 94.9165C80.928 95.8898 79.979 96.778 78.811 97.581C77.643 98.384 76.256 99.0653 74.65 99.625C78.2513 100.477 80.9158 101.864 82.6435 103.786C84.3712 105.708 85.235 108.202 85.235 111.268C85.235 113.507 84.797 115.588 83.921 117.51C83.0693 119.432 81.8162 121.099 80.1615 122.51C78.5068 123.922 76.4628 125.029 74.0295 125.832C71.6205 126.611 68.8465 127 65.7075 127H45.1945V74.0385H63.992Z" fill="white"/>
<path d="M115.903 186.969C116.511 186.969 117.022 187.188 117.436 187.626L121.779 192.262C119.638 194.987 116.974 197.056 113.786 198.467C110.623 199.878 106.851 200.584 102.471 200.584C98.5047 200.584 94.9398 199.915 91.7765 198.576C88.6131 197.214 85.9243 195.328 83.71 192.919C81.4957 190.51 79.7923 187.651 78.6 184.341C77.4076 181.032 76.8115 177.419 76.8115 173.501C76.8115 170.873 77.0913 168.379 77.651 166.018C78.235 163.634 79.0745 161.444 80.1695 159.448C81.2645 157.453 82.5785 155.652 84.1115 154.046C85.6688 152.44 87.4208 151.078 89.3675 149.958C91.3142 148.815 93.4311 147.951 95.7185 147.367C98.0302 146.759 100.488 146.454 103.091 146.454C105.038 146.454 106.875 146.625 108.603 146.965C110.355 147.306 111.985 147.781 113.494 148.389C115.003 148.997 116.39 149.739 117.655 150.615C118.945 151.467 120.1 152.404 121.122 153.426L117.436 158.463C117.217 158.779 116.937 159.059 116.596 159.302C116.256 159.546 115.793 159.667 115.209 159.667C114.625 159.667 114.029 159.461 113.421 159.047C112.837 158.633 112.107 158.171 111.231 157.66C110.379 157.149 109.296 156.687 107.982 156.273C106.693 155.859 105.05 155.652 103.055 155.652C100.841 155.652 98.8088 156.054 96.9595 156.857C95.1102 157.66 93.5163 158.828 92.178 160.361C90.864 161.87 89.842 163.731 89.112 165.945C88.382 168.16 88.017 170.678 88.017 173.501C88.017 176.348 88.4063 178.891 89.185 181.129C89.988 183.344 91.0708 185.217 92.4335 186.75C93.8205 188.283 95.4265 189.451 97.2515 190.254C99.1008 191.033 101.072 191.422 103.164 191.422C104.405 191.422 105.525 191.362 106.522 191.24C107.544 191.118 108.481 190.911 109.333 190.619C110.209 190.327 111.024 189.95 111.778 189.488C112.557 189.026 113.336 188.442 114.114 187.736C114.382 187.517 114.662 187.334 114.954 187.188C115.246 187.042 115.562 186.969 115.903 186.969Z" fill="white"/>
</g>
<defs>
<filter id="filter0_d" x="0.343018" y="0.0384827" width="125.436" height="207.546" filterUnits="userSpaceOnUse" color-interpolation-filters="sRGB">
<feFlood flood-opacity="0" result="BackgroundImageFix"/>
<feColorMatrix in="SourceAlpha" type="matrix" values="0 0 0 0 0 0 0 0 0 0 0 0 0 0 0 0 0 0 127 0"/>
<feOffset dy="3"/>
<feGaussianBlur stdDeviation="2"/>
<feColorMatrix type="matrix" values="0 0 0 0 0 0 0 0 0 0 0 0 0 0 0 0 0 0 0.25 0"/>
<feBlend mode="normal" in2="BackgroundImageFix" result="effect1_dropShadow"/>
<feBlend mode="normal" in="SourceGraphic" in2="effect1_dropShadow" result="shape"/>
</filter>
</defs>
</svg>
