<svg width="126" height="208" viewBox="0 0 126 208" fill="none" xmlns="http://www.w3.org/2000/svg">
<g filter="url(#filter0_d)">
<path d="M115.903 41.9695C116.511 41.9695 117.022 42.1885 117.436 42.6265L121.779 47.262C119.638 49.9873 116.974 52.0557 113.786 53.467C110.623 54.8783 106.851 55.584 102.471 55.584C98.5047 55.584 94.9398 54.9148 91.7765 53.5765C88.6131 52.2138 85.9243 50.328 83.71 47.919C81.4957 45.51 79.7923 42.6508 78.6 39.3415C77.4076 36.0322 76.8115 32.4187 76.8115 28.501C76.8115 25.873 77.0913 23.3788 77.651 21.0185C78.235 18.6338 79.0745 16.4438 80.1695 14.4485C81.2645 12.4532 82.5785 10.6525 84.1115 9.0465C85.6688 7.4405 87.4208 6.07783 89.3675 4.9585C91.3142 3.81483 93.4311 2.951 95.7185 2.367C98.0302 1.75867 100.488 1.4545 103.091 1.4545C105.038 1.4545 106.875 1.62483 108.603 1.9655C110.355 2.30617 111.985 2.78067 113.494 3.389C115.003 3.99733 116.39 4.7395 117.655 5.6155C118.945 6.46717 120.1 7.404 121.122 8.426L117.436 13.463C117.217 13.7793 116.937 14.0592 116.596 14.3025C116.256 14.5458 115.793 14.6675 115.209 14.6675C114.625 14.6675 114.029 14.4607 113.421 14.047C112.837 13.6333 112.107 13.171 111.231 12.66C110.379 12.149 109.296 11.6867 107.982 11.273C106.693 10.8593 105.05 10.6525 103.055 10.6525C100.841 10.6525 98.8088 11.054 96.9595 11.857C95.1102 12.66 93.5163 13.828 92.178 15.361C90.864 16.8697 89.842 18.7312 89.112 20.9455C88.382 23.1598 88.017 25.6783 88.017 28.501C88.017 31.348 88.4063 33.8908 89.185 36.1295C89.988 38.3438 91.0708 40.2175 92.4335 41.7505C93.8205 43.2835 95.4265 44.4515 97.2515 45.2545C99.1008 46.0332 101.072 46.4225 103.164 46.4225C104.405 46.4225 105.525 46.3617 106.522 46.24C107.544 46.1183 108.481 45.9115 109.333 45.6195C110.209 45.3275 111.024 44.9503 111.778 44.488C112.557 44.0257 113.336 43.4417 114.114 42.736C114.382 42.517 114.662 42.3345 114.954 42.1885C115.246 42.0425 115.562 41.9695 115.903 41.9695Z" fill="white"/>
<path d="M65.525 119.605C67.277 119.605 68.7127 119.398 69.832 118.984C70.9757 118.546 71.8882 117.975 72.5695 117.269C73.2508 116.563 73.7253 115.76 73.993 114.86C74.2607 113.935 74.3945 112.986 74.3945 112.013C74.3945 110.942 74.2363 109.981 73.92 109.13C73.6037 108.278 73.0927 107.56 72.387 106.976C71.6813 106.368 70.7567 105.905 69.613 105.589C68.4937 105.273 67.1067 105.115 65.452 105.115H56.1445V119.605H65.525ZM56.1445 83.3605V97.6685H63.335C64.868 97.6685 66.2307 97.5468 67.423 97.3035C68.6153 97.0358 69.613 96.6222 70.416 96.0625C71.219 95.5028 71.8273 94.7728 72.241 93.8725C72.679 92.9478 72.898 91.8407 72.898 90.551C72.898 89.237 72.7155 88.1177 72.3505 87.193C72.0098 86.2683 71.4745 85.5262 70.7445 84.9665C70.0145 84.4068 69.0898 84.0053 67.9705 83.762C66.8512 83.4943 65.525 83.3605 63.992 83.3605H56.1445ZM63.992 75.0385C67.5447 75.0385 70.5742 75.3792 73.0805 76.0605C75.6112 76.7175 77.6673 77.6665 79.249 78.9075C80.855 80.1242 82.023 81.6085 82.753 83.3605C83.483 85.1125 83.848 87.0713 83.848 89.237C83.848 90.4537 83.6655 91.6217 83.3005 92.741C82.9598 93.8603 82.4123 94.9188 81.658 95.9165C80.928 96.8898 79.979 97.778 78.811 98.581C77.643 99.384 76.256 100.065 74.65 100.625C78.2513 101.477 80.9158 102.864 82.6435 104.786C84.3712 106.708 85.235 109.203 85.235 112.269C85.235 114.507 84.797 116.588 83.921 118.51C83.0693 120.432 81.8162 122.099 80.1615 123.51C78.5068 124.922 76.4628 126.029 74.0295 126.832C71.6205 127.611 68.8465 128 65.7075 128H45.1945V75.0385H63.992Z" fill="white"/>
<path d="M38.507 180.889L32.7765 164.682C32.4359 163.831 32.0709 162.833 31.6815 161.689C31.3165 160.546 30.9637 159.305 30.623 157.966C30.2824 159.329 29.9174 160.594 29.528 161.762C29.163 162.906 28.8102 163.904 28.4695 164.755L22.7755 180.889H38.507ZM56.903 201H48.3985C47.4495 201 46.6709 200.781 46.0625 200.343C45.4785 199.881 45.0405 199.297 44.7485 198.591L41.1715 188.48H20.0745L16.4975 198.591C16.2542 199.199 15.8284 199.759 15.22 200.27C14.6117 200.757 13.8452 201 12.9205 201H4.34302L25.0385 148.038H36.244L56.903 201Z" fill="white"/>
</g>
<defs>
<filter id="filter0_d" x="0.343018" y="0.454498" width="125.436" height="207.546" filterUnits="userSpaceOnUse" color-interpolation-filters="sRGB">
<feFlood flood-opacity="0" result="BackgroundImageFix"/>
<feColorMatrix in="SourceAlpha" type="matrix" values="0 0 0 0 0 0 0 0 0 0 0 0 0 0 0 0 0 0 127 0"/>
<feOffset dy="3"/>
<feGaussianBlur stdDeviation="2"/>
<feColorMatrix type="matrix" values="0 0 0 0 0 0 0 0 0 0 0 0 0 0 0 0 0 0 0.25 0"/>
<feBlend mode="normal" in2="BackgroundImageFix" result="effect1_dropShadow"/>
<feBlend mode="normal" in="SourceGraphic" in2="effect1_dropShadow" result="shape"/>
</filter>
</defs>
</svg>
