<svg width="113" height="208" viewBox="0 0 113 208" fill="none" xmlns="http://www.w3.org/2000/svg">
<g filter="url(#filter0_d)">
<path d="M38.033 46.5905V54H8.32201V46.5905H18.834V17.6095C18.834 16.9768 18.8462 16.332 18.8705 15.675C18.8948 15.018 18.9313 14.3488 18.98 13.6675L12.045 19.4345C11.5583 19.7995 11.0838 20.0307 10.6215 20.128C10.1592 20.2253 9.72117 20.2375 9.30751 20.1645C8.89384 20.0672 8.52884 19.9212 8.21251 19.7265C7.89617 19.5075 7.65284 19.2885 7.48251 19.0695L4.30701 14.799L20.586 1.00201H28.8715V46.5905H38.033Z" fill="white"/>
<path d="M70.38 117.766C71.475 117.766 72.3267 118.07 72.935 118.678C73.5677 119.286 73.884 120.089 73.884 121.087V127H37.165V123.715C37.165 123.082 37.2988 122.401 37.5665 121.671C37.8342 120.917 38.2843 120.235 38.917 119.627L54.612 103.896C55.9503 102.557 57.1305 101.28 58.1525 100.063C59.1745 98.822 60.0262 97.6175 60.7075 96.4495C61.3888 95.2572 61.8998 94.0527 62.2405 92.836C62.5812 91.6193 62.7515 90.3418 62.7515 89.0035C62.7515 86.6432 62.1432 84.8547 60.9265 83.638C59.7098 82.397 57.9943 81.7765 55.78 81.7765C54.8067 81.7765 53.9063 81.9225 53.079 82.2145C52.276 82.4822 51.546 82.8593 50.889 83.346C50.2563 83.8327 49.7088 84.4045 49.2465 85.0615C48.7842 85.7185 48.4435 86.4363 48.2245 87.215C47.7865 88.4317 47.1903 89.2468 46.436 89.6605C45.706 90.0498 44.6597 90.135 43.297 89.916L37.968 88.967C38.3573 86.3877 39.0873 84.1247 40.158 82.178C41.2287 80.2313 42.567 78.6132 44.173 77.3235C45.779 76.0339 47.6162 75.0727 49.6845 74.44C51.7528 73.783 53.9793 73.4545 56.364 73.4545C58.8703 73.4545 61.1455 73.8317 63.1895 74.586C65.2578 75.316 67.022 76.3502 68.482 77.6885C69.942 79.0025 71.0735 80.5963 71.8765 82.47C72.6795 84.3437 73.081 86.412 73.081 88.675C73.081 90.6217 72.8012 92.4223 72.2415 94.077C71.6818 95.7317 70.9153 97.3133 69.942 98.822C68.993 100.306 67.8858 101.754 66.6205 103.166C65.3552 104.577 64.0168 106 62.6055 107.436L51.3635 118.934C52.6045 118.569 53.8333 118.289 55.05 118.094C56.2667 117.875 57.4103 117.766 58.481 117.766H70.38Z" fill="white"/>
<path d="M72.9065 161.967C73.2958 159.388 74.0258 157.125 75.0965 155.178C76.1671 153.231 77.5055 151.613 79.1115 150.324C80.7175 149.034 82.5425 148.073 84.5865 147.44C86.6548 146.783 88.8813 146.455 91.266 146.455C93.7966 146.455 96.0596 146.82 98.055 147.55C100.075 148.255 101.778 149.229 103.165 150.47C104.552 151.711 105.61 153.158 106.34 154.813C107.095 156.468 107.472 158.244 107.472 160.142C107.472 161.821 107.289 163.305 106.924 164.595C106.584 165.86 106.061 166.968 105.355 167.917C104.674 168.866 103.822 169.669 102.8 170.326C101.802 170.983 100.646 171.53 99.3325 171.968C105.416 173.963 108.457 178.015 108.457 184.123C108.457 186.824 107.959 189.208 106.961 191.277C105.963 193.321 104.625 195.036 102.946 196.423C101.267 197.81 99.3081 198.856 97.0695 199.562C94.8551 200.243 92.5313 200.584 90.098 200.584C87.5186 200.584 85.2435 200.292 83.2725 199.708C81.3015 199.124 79.5616 198.248 78.053 197.08C76.5686 195.912 75.2911 194.452 74.2205 192.7C73.1498 190.924 72.213 188.855 71.41 186.495L75.863 184.67C77.031 184.183 78.1138 184.05 79.1115 184.269C80.1335 184.488 80.8635 185.023 81.3015 185.875C81.7881 186.799 82.2991 187.651 82.8345 188.43C83.3941 189.208 84.0146 189.89 84.696 190.474C85.3773 191.033 86.1438 191.471 86.9955 191.788C87.8715 192.104 88.8691 192.262 89.9885 192.262C91.3998 192.262 92.6286 192.031 93.675 191.569C94.7213 191.106 95.5973 190.51 96.303 189.78C97.0086 189.026 97.5318 188.186 97.8725 187.262C98.2375 186.313 98.42 185.376 98.42 184.451C98.42 183.234 98.3105 182.139 98.0915 181.166C97.8725 180.168 97.3615 179.329 96.5585 178.648C95.7798 177.942 94.6118 177.407 93.0545 177.042C91.5215 176.652 89.4288 176.458 86.7765 176.458V169.377C88.9908 169.377 90.8036 169.194 92.215 168.829C93.6263 168.464 94.7335 167.953 95.5365 167.296C96.3395 166.639 96.887 165.848 97.179 164.924C97.4953 163.999 97.6535 162.989 97.6535 161.894C97.6535 159.582 97.0451 157.818 95.8285 156.602C94.6361 155.385 92.9328 154.777 90.7185 154.777C89.7451 154.777 88.8448 154.923 88.0175 155.215C87.2145 155.482 86.4845 155.859 85.8275 156.346C85.1948 156.833 84.6473 157.405 84.185 158.062C83.7226 158.719 83.382 159.436 83.163 160.215C82.7006 161.432 82.1045 162.247 81.3745 162.661C80.6445 163.05 79.586 163.135 78.199 162.916L72.9065 161.967Z" fill="white"/>
</g>
<defs>
<filter id="filter0_d" x="0.307007" y="0.00201416" width="112.15" height="207.582" filterUnits="userSpaceOnUse" color-interpolation-filters="sRGB">
<feFlood flood-opacity="0" result="BackgroundImageFix"/>
<feColorMatrix in="SourceAlpha" type="matrix" values="0 0 0 0 0 0 0 0 0 0 0 0 0 0 0 0 0 0 127 0"/>
<feOffset dy="3"/>
<feGaussianBlur stdDeviation="2"/>
<feColorMatrix type="matrix" values="0 0 0 0 0 0 0 0 0 0 0 0 0 0 0 0 0 0 0.25 0"/>
<feBlend mode="normal" in2="BackgroundImageFix" result="effect1_dropShadow"/>
<feBlend mode="normal" in="SourceGraphic" in2="effect1_dropShadow" result="shape"/>
</filter>
</defs>
</svg>
