<svg width="113" height="208" viewBox="0 0 113 208" fill="none" xmlns="http://www.w3.org/2000/svg">
<g filter="url(#filter0_d)">
<path d="M72.9065 16.967C73.2958 14.3877 74.0258 12.1247 75.0965 10.178C76.1671 8.23133 77.5055 6.61317 79.1115 5.3235C80.7175 4.03383 82.5425 3.07267 84.5865 2.44C86.6548 1.783 88.8813 1.4545 91.266 1.4545C93.7966 1.4545 96.0596 1.8195 98.055 2.5495C100.075 3.25517 101.778 4.2285 103.165 5.4695C104.552 6.7105 105.61 8.15833 106.34 9.813C107.095 11.4677 107.472 13.244 107.472 15.142C107.472 16.821 107.289 18.3053 106.924 19.595C106.584 20.8603 106.061 21.9675 105.355 22.9165C104.674 23.8655 103.822 24.6685 102.8 25.3255C101.802 25.9825 100.646 26.53 99.3325 26.968C105.416 28.9633 108.457 33.0148 108.457 39.1225C108.457 41.8235 107.959 44.2082 106.961 46.2765C105.963 48.3205 104.625 50.036 102.946 51.423C101.267 52.81 99.3081 53.8563 97.0695 54.562C94.8551 55.2433 92.5313 55.584 90.098 55.584C87.5186 55.584 85.2435 55.292 83.2725 54.708C81.3015 54.124 79.5616 53.248 78.053 52.08C76.5686 50.912 75.2911 49.452 74.2205 47.7C73.1498 45.9237 72.213 43.8553 71.41 41.495L75.863 39.67C77.031 39.1833 78.1138 39.0495 79.1115 39.2685C80.1335 39.4875 80.8635 40.0228 81.3015 40.8745C81.7881 41.7992 82.2991 42.6508 82.8345 43.4295C83.3941 44.2082 84.0146 44.8895 84.696 45.4735C85.3773 46.0332 86.1438 46.4712 86.9955 46.7875C87.8715 47.1038 88.8691 47.262 89.9885 47.262C91.3998 47.262 92.6286 47.0308 93.675 46.5685C94.7213 46.1062 95.5973 45.51 96.303 44.78C97.0086 44.0257 97.5318 43.1862 97.8725 42.2615C98.2375 41.3125 98.42 40.3757 98.42 39.451C98.42 38.2343 98.3105 37.1393 98.0915 36.166C97.8725 35.1683 97.3615 34.3288 96.5585 33.6475C95.7798 32.9418 94.6118 32.4065 93.0545 32.0415C91.5215 31.6522 89.4288 31.4575 86.7765 31.4575V24.3765C88.9908 24.3765 90.8036 24.194 92.215 23.829C93.6263 23.464 94.7335 22.953 95.5365 22.296C96.3395 21.639 96.887 20.8482 97.179 19.9235C97.4953 18.9988 97.6535 17.989 97.6535 16.894C97.6535 14.5823 97.0451 12.8182 95.8285 11.6015C94.6361 10.3848 92.9328 9.7765 90.7185 9.7765C89.7451 9.7765 88.8448 9.9225 88.0175 10.2145C87.2145 10.4822 86.4845 10.8593 85.8275 11.346C85.1948 11.8327 84.6473 12.4045 84.185 13.0615C83.7226 13.7185 83.382 14.4363 83.163 15.215C82.7006 16.4317 82.1045 17.2468 81.3745 17.6605C80.6445 18.0498 79.586 18.135 78.199 17.916L72.9065 16.967Z" fill="white"/>
<path d="M70.38 118.766C71.475 118.766 72.3267 119.07 72.935 119.678C73.5677 120.286 73.884 121.089 73.884 122.087V128H37.165V124.715C37.165 124.082 37.2988 123.401 37.5665 122.671C37.8342 121.917 38.2843 121.235 38.917 120.627L54.612 104.896C55.9503 103.557 57.1305 102.28 58.1525 101.063C59.1745 99.822 60.0262 98.6175 60.7075 97.4495C61.3888 96.2572 61.8998 95.0527 62.2405 93.836C62.5812 92.6193 62.7515 91.3418 62.7515 90.0035C62.7515 87.6432 62.1432 85.8547 60.9265 84.638C59.7098 83.397 57.9943 82.7765 55.78 82.7765C54.8067 82.7765 53.9063 82.9225 53.079 83.2145C52.276 83.4822 51.546 83.8593 50.889 84.346C50.2563 84.8327 49.7088 85.4045 49.2465 86.0615C48.7842 86.7185 48.4435 87.4363 48.2245 88.215C47.7865 89.4317 47.1903 90.2468 46.436 90.6605C45.706 91.0498 44.6597 91.135 43.297 90.916L37.968 89.967C38.3573 87.3877 39.0873 85.1247 40.158 83.178C41.2287 81.2313 42.567 79.6132 44.173 78.3235C45.779 77.0338 47.6162 76.0727 49.6845 75.44C51.7528 74.783 53.9793 74.4545 56.364 74.4545C58.8703 74.4545 61.1455 74.8317 63.1895 75.586C65.2578 76.316 67.022 77.3502 68.482 78.6885C69.942 80.0025 71.0735 81.5963 71.8765 83.47C72.6795 85.3437 73.081 87.412 73.081 89.675C73.081 91.6217 72.8012 93.4223 72.2415 95.077C71.6818 96.7317 70.9153 98.3133 69.942 99.822C68.993 101.306 67.8858 102.754 66.6205 104.165C65.3552 105.577 64.0168 107 62.6055 108.436L51.3635 119.934C52.6045 119.569 53.8333 119.289 55.05 119.094C56.2667 118.875 57.4103 118.766 58.481 118.766H70.38Z" fill="white"/>
<path d="M38.033 193.59V201H8.32201V193.59H18.834V164.609C18.834 163.977 18.8462 163.332 18.8705 162.675C18.8948 162.018 18.9313 161.349 18.98 160.667L12.045 166.434C11.5583 166.799 11.0838 167.031 10.6215 167.128C10.1592 167.225 9.72117 167.238 9.30751 167.165C8.89384 167.067 8.52884 166.921 8.21251 166.727C7.89617 166.508 7.65284 166.289 7.48251 166.07L4.30701 161.799L20.586 148.002H28.8715V193.59H38.033Z" fill="white"/>
</g>
<defs>
<filter id="filter0_d" x="0.307007" y="0.454498" width="112.15" height="207.546" filterUnits="userSpaceOnUse" color-interpolation-filters="sRGB">
<feFlood flood-opacity="0" result="BackgroundImageFix"/>
<feColorMatrix in="SourceAlpha" type="matrix" values="0 0 0 0 0 0 0 0 0 0 0 0 0 0 0 0 0 0 127 0"/>
<feOffset dy="3"/>
<feGaussianBlur stdDeviation="2"/>
<feColorMatrix type="matrix" values="0 0 0 0 0 0 0 0 0 0 0 0 0 0 0 0 0 0 0.25 0"/>
<feBlend mode="normal" in2="BackgroundImageFix" result="effect1_dropShadow"/>
<feBlend mode="normal" in="SourceGraphic" in2="effect1_dropShadow" result="shape"/>
</filter>
</defs>
</svg>
